# xmcd CD database file
#
# Track frame offsets:
#	150
#	13892
#	30175
#	46315
#	67520
#	84867
#	101580
#	129307
#	145168
#	166561
#	183521
#	199713
#	212561
#	233188
#
# Disc length: 3435 seconds
#
# Revision: 9
# Processed by: cddbd v1.5.2PL0 Copyright (c) Steve Scherf et al.
# Submitted via: CDex 1.70beta3
#
DISCID=a40d690e
DTITLE=THE HIGH-LOWS - angel beetle
DYEAR=2002
DGENRE=Rock
TTITLE0=Too Late To Die
TTITLE1=ななの少し上に
TTITLE2=スカイフィッシュ
TTITLE3=アメリカ魂
TTITLE4=毛虫
TTITLE5=天の川
TTITLE6=マミー
TTITLE7=俺たちに明日は無い
TTITLE8=Born To Be Pooh
TTITLE9=映画
TTITLE10=つき指
TTITLE11=曇天
TTITLE12=ecstacy
TTITLE13=一人で大人 一人で子供
EXTD=YEAR: 2002
EXTT0=
EXTT1=
EXTT2=
EXTT3=
EXTT4=
EXTT5=
EXTT6=
EXTT7=
EXTT8=
EXTT9=
EXTT10=
EXTT11=
EXTT12=
EXTT13=
PLAYORDER=
